<svg xmlns="http://www.w3.org/2000/svg" style="display:none">
<symbol id="arrow-clockwise" viewBox="0 0 256 256"><path d="M240,56v48a8,8,0,0,1-8,8H184a8,8,0,0,1,0-16H211.4L184.81,71.64l-.25-.24a80,80,0,1,0-1.67,114.78,8,8,0,0,1,11,11.63A95.44,95.44,0,0,1,128,224h-1.32A96,96,0,1,1,195.75,60L224,85.8V56a8,8,0,1,1,16,0Z"/></symbol>
<symbol id="bus" viewBox="0 0 256 256"><path d="M184,32H72A32,32,0,0,0,40,64V208a16,16,0,0,0,16,16H80a16,16,0,0,0,16-16V192h64v16a16,16,0,0,0,16,16h24a16,16,0,0,0,16-16V64A32,32,0,0,0,184,32ZM56,176V120H200v56Zm0-96H200v24H56ZM72,48H184a16,16,0,0,1,16,16H56A16,16,0,0,1,72,48Zm8,160H56V192H80Zm96,0V192h24v16Zm-72-60a12,12,0,1,1-12-12A12,12,0,0,1,104,148Zm72,0a12,12,0,1,1-12-12A12,12,0,0,1,176,148Zm72-68v24a8,8,0,0,1-16,0V80a8,8,0,0,1,16,0ZM24,80v24a8,8,0,0,1-16,0V80a8,8,0,0,1,16,0Z"/></symbol>
<symbol id="clock" viewBox="0 0 256 256"><path d="M128,24A104,104,0,1,0,232,128,104.11,104.11,0,0,0,128,24Zm0,192a88,88,0,1,1,88-88A88.1,88.1,0,0,1,128,216Zm64-88a8,8,0,0,1-8,8H128a8,8,0,0,1-8-8V72a8,8,0,0,1,16,0v48h48A8,8,0,0,1,192,128Z"/></symbol>
<symbol id="crosshair" viewBox="0 0 256 256"><path d="M232,120h-8.34A96.14,96.14,0,0,0,136,32.34V24a8,8,0,0,0-16,0v8.34A96.14,96.14,0,0,0,32.34,120H24a8,8,0,0,0,0,16h8.34A96.14,96.14,0,0,0,120,223.66V232a8,8,0,0,0,16,0v-8.34A96.14,96.14,0,0,0,223.66,136H232a8,8,0,0,0,0-16Zm-96,87.6V200a8,8,0,0,0-16,0v7.6A80.15,80.15,0,0,1,48.4,136H56a8,8,0,0,0,0-16H48.4A80.15,80.15,0,0,1,120,48.4V56a8,8,0,0,0,16,0V48.4A80.15,80.15,0,0,1,207.6,120H200a8,8,0,0,0,0,16h7.6A80.15,80.15,0,0,1,136,207.6ZM128,88a40,40,0,1,0,40,40A40,40,0,0,0,128,88Zm0,64a24,24,0,1,1,24-24A24,24,0,0,1,128,152Z"/></symbol>
<symbol id="first-aid-kit" viewBox="0 0 256 256"><path d="M216,56H176V48a24,24,0,0,0-24-24H104A24,24,0,0,0,80,48v8H40A16,16,0,0,0,24,72V200a16,16,0,0,0,16,16H216a16,16,0,0,0,16-16V72A16,16,0,0,0,216,56ZM96,48a8,8,0,0,1,8-8h48a8,8,0,0,1,8,8v8H96ZM216,200H40V72H216V200Zm-56-64a8,8,0,0,1-8,8H136v16a8,8,0,0,1-16,0V144H104a8,8,0,0,1,0-16h16V112a8,8,0,0,1,16,0v16h16A8,8,0,0,1,160,136Z"/></symbol>
<symbol id="fork-knife" viewBox="0 0 256 256"><path d="M72,88V40a8,8,0,0,1,16,0V88a8,8,0,0,1-16,0ZM216,40V224a8,8,0,0,1-16,0V176H152a8,8,0,0,1-8-8,268.75,268.75,0,0,1,7.22-56.88c9.78-40.49,28.32-67.63,53.63-78.47A8,8,0,0,1,216,40ZM200,53.9c-32.17,24.57-38.47,84.42-39.7,106.1H200ZM119.89,38.69a8,8,0,1,0-15.78,2.63L112,88.63a32,32,0,0,1-64,0l7.88-47.31a8,8,0,1,0-15.78-2.63l-8,48A8.17,8.17,0,0,0,32,88a48.07,48.07,0,0,0,40,47.32V224a8,8,0,0,0,16,0V135.32A48.07,48.07,0,0,0,128,88a8.17,8.17,0,0,0-.11-1.31Z"/></symbol>
<symbol id="hands-praying" viewBox="0 0 256 256"><path d="M235.32,180l-36.24-36.25L162.62,23.46A21.76,21.76,0,0,0,128,12.93,21.76,21.76,0,0,0,93.38,23.46L56.92,143.76,20.68,180a16,16,0,0,0,0,22.62l32.69,32.69a16,16,0,0,0,22.63,0L124.28,187a40.68,40.68,0,0,0,3.72-4.29,40.68,40.68,0,0,0,3.72,4.29L180,235.32a16,16,0,0,0,22.63,0l32.69-32.69A16,16,0,0,0,235.32,180ZM64.68,224,32,191.32l12.69-12.69,32.69,32.69ZM120,158.75a23.85,23.85,0,0,1-7,17L88.68,200,56,167.32l13.65-13.66a8,8,0,0,0,2-3.34l37-122.22A5.78,5.78,0,0,1,120,29.78Zm23,17a23.85,23.85,0,0,1-7-17v-129a5.78,5.78,0,0,1,11.31-1.68l37,122.22a8,8,0,0,0,2,3.34l14.49,14.49-33.4,32ZM191.32,224l-12.56-12.57,33.39-32L224,191.32Z"/></symbol>
<symbol id="info" viewBox="0 0 256 256"><path d="M128,24A104,104,0,1,0,232,128,104.11,104.11,0,0,0,128,24Zm0,192a88,88,0,1,1,88-88A88.1,88.1,0,0,1,128,216Zm16-40a8,8,0,0,1-8,8,16,16,0,0,1-16-16V128a8,8,0,0,1,0-16,16,16,0,0,1,16,16v40A8,8,0,0,1,144,176ZM112,84a12,12,0,1,1,12,12A12,12,0,0,1,112,84Z"/></symbol>
<symbol id="magnifying-glass" viewBox="0 0 256 256"><path d="M229.66,218.34l-50.07-50.06a88.11,88.11,0,1,0-11.31,11.31l50.06,50.07a8,8,0,0,0,11.32-11.32ZM40,112a72,72,0,1,1,72,72A72.08,72.08,0,0,1,40,112Z"/></symbol>
<symbol id="map-pin" viewBox="0 0 256 256"><path d="M128,64a40,40,0,1,0,40,40A40,40,0,0,0,128,64Zm0,64a24,24,0,1,1,24-24A24,24,0,0,1,128,128Zm0-112a88.1,88.1,0,0,0-88,88c0,31.4,14.51,64.68,42,96.25a254.19,254.19,0,0,0,41.45,38.3,8,8,0,0,0,9.18,0A254.19,254.19,0,0,0,174,200.25c27.45-31.57,42-64.85,42-96.25A88.1,88.1,0,0,0,128,16Zm0,206c-16.53-13-72-60.75-72-118a72,72,0,0,1,144,0C200,161.23,144.53,209,128,222Z"/></symbol>
<symbol id="storefront" viewBox="0 0 256 256"><path d="M232,96a7.89,7.89,0,0,0-.3-2.2L217.35,43.6A16.07,16.07,0,0,0,202,32H54A16.07,16.07,0,0,0,38.65,43.6L24.31,93.8A7.89,7.89,0,0,0,24,96h0v16a40,40,0,0,0,16,32v72a8,8,0,0,0,8,8H208a8,8,0,0,0,8-8V144a40,40,0,0,0,16-32V96ZM54,48H202l11.42,40H42.61Zm50,56h48v8a24,24,0,0,1-48,0Zm-16,0v8a24,24,0,0,1-35.12,21.26,7.88,7.88,0,0,0-1.82-1.06A24,24,0,0,1,40,112v-8ZM200,208H56V151.2a40.57,40.57,0,0,0,8,.8,40,40,0,0,0,32-16,40,40,0,0,0,64,0,40,40,0,0,0,32,16,40.57,40.57,0,0,0,8-.8Zm4.93-75.8a8.08,8.08,0,0,0-1.8,1.05A24,24,0,0,1,168,112v-8h48v8A24,24,0,0,1,204.93,132.2Z"/></symbol>
<symbol id="student" viewBox="0 0 256 256"><path d="M226.53,56.41l-96-32a8,8,0,0,0-5.06,0l-96,32A8,8,0,0,0,24,64v80a8,8,0,0,0,16,0V75.1L73.59,86.29a64,64,0,0,0,20.65,88.05c-18,7.06-33.56,19.83-44.94,37.29a8,8,0,1,0,13.4,8.74C77.77,197.25,101.57,184,128,184s50.23,13.25,65.3,36.37a8,8,0,0,0,13.4-8.74c-11.38-17.46-27-30.23-44.94-37.29a64,64,0,0,0,20.65-88l44.12-14.7a8,8,0,0,0,0-15.18ZM176,120A48,48,0,1,1,89.35,91.55l36.12,12a8,8,0,0,0,5.06,0l36.12-12A47.89,47.89,0,0,1,176,120ZM128,87.57,57.3,64,128,40.43,198.7,64Z"/></symbol>
<symbol id="tree" viewBox="0 0 256 256"><path d="M198.1,62.59a76,76,0,0,0-140.2,0A71.71,71.71,0,0,0,16,127.8C15.9,166,48,199,86.14,200A72.09,72.09,0,0,0,120,192.47V232a8,8,0,0,0,16,0V192.47A72.17,72.17,0,0,0,168,200l1.82,0C208,199,240.11,166,240,127.8A71.71,71.71,0,0,0,198.1,62.59ZM169.45,184a56.08,56.08,0,0,1-33.45-10v-41l43.58-21.78a8,8,0,1,0-7.16-14.32L136,115.06V88a8,8,0,0,0-16,0v51.06L83.58,120.84a8,8,0,1,0-7.16,14.32L120,156.94v17a56,56,0,0,1-33.45,10C56.9,183.23,31.92,157.52,32,127.84A55.77,55.77,0,0,1,67.11,76a8,8,0,0,0,4.53-4.67,60,60,0,0,1,112.72,0A8,8,0,0,0,188.89,76,55.79,55.79,0,0,1,224,127.84C224.08,157.52,199.1,183.23,169.45,184Z"/></symbol>
<symbol id="warning-circle" viewBox="0 0 256 256"><path d="M128,24A104,104,0,1,0,232,128,104.11,104.11,0,0,0,128,24Zm0,192a88,88,0,1,1,88-88A88.1,88.1,0,0,1,128,216Zm-8-80V80a8,8,0,0,1,16,0v56a8,8,0,0,1-16,0Zm20,36a12,12,0,1,1-12-12A12,12,0,0,1,140,172Z"/></symbol>
<symbol id="x" viewBox="0 0 256 256"><path d="M205.66,194.34a8,8,0,0,1-11.32,11.32L128,139.31,61.66,205.66a8,8,0,0,1-11.32-11.32L116.69,128,50.34,61.66A8,8,0,0,1,61.66,50.34L128,116.69l66.34-66.35a8,8,0,0,1,11.32,11.32L139.31,128Z"/></symbol>
<symbol id="person-simple-walk" viewBox="0 0 256 256"><path d="M152,80a32,32,0,1,0-32-32A32,32,0,0,0,152,80Zm0-48a16,16,0,1,1-16,16A16,16,0,0,1,152,32Zm64,112a8,8,0,0,1-8,8c-35.31,0-52.95-17.81-67.12-32.12-2.74-2.77-5.36-5.4-8-7.84l-13.43,30.88,37.2,26.57A8,8,0,0,1,160,176v56a8,8,0,0,1-16,0V180.12l-31.07-22.2L79.34,235.19A8,8,0,0,1,72,240a7.84,7.84,0,0,1-3.19-.67,8,8,0,0,1-4.15-10.52l54.08-124.37c-9.31-1.65-20.92,1.2-34.7,8.58a163.88,163.88,0,0,0-30.57,21.77,8,8,0,0,1-10.95-11.66c2.5-2.35,61.69-57.23,98.72-25.08,3.83,3.32,7.48,7,11,10.57C166.19,122.7,179.36,136,208,136A8,8,0,0,1,216,144Z"/></symbol>
<symbol id="wallet" viewBox="0 0 256 256"><path d="M216,64H56a8,8,0,0,1,0-16H192a8,8,0,0,0,0-16H56A24,24,0,0,0,32,56V184a24,24,0,0,0,24,24H216a16,16,0,0,0,16-16V80A16,16,0,0,0,216,64Zm0,128H56a8,8,0,0,1-8-8V78.63A23.84,23.84,0,0,0,56,80H216Zm-48-60a12,12,0,1,1,12,12A12,12,0,0,1,168,132Z"/></symbol>
<symbol id="moon" viewBox="0 0 256 256"><path d="M233.54,142.23a8,8,0,0,0-8-2,88.08,88.08,0,0,1-109.8-109.8,8,8,0,0,0-10-10,104.84,104.84,0,0,0-52.91,37A104,104,0,0,0,136,224a103.09,103.09,0,0,0,62.52-20.88,104.84,104.84,0,0,0,37-52.91A8,8,0,0,0,233.54,142.23ZM188.9,190.34A88,88,0,0,1,65.66,67.11a89,89,0,0,1,31.4-26A106,106,0,0,0,96,56,104.11,104.11,0,0,0,200,160a106,106,0,0,0,14.92-1.06A89,89,0,0,1,188.9,190.34Z"/></symbol>
<symbol id="sun" viewBox="0 0 256 256"><path d="M120,40V16a8,8,0,0,1,16,0V40a8,8,0,0,1-16,0Zm72,88a64,64,0,1,1-64-64A64.07,64.07,0,0,1,192,128Zm-16,0a48,48,0,1,0-48,48A48.05,48.05,0,0,0,176,128ZM58.34,69.66A8,8,0,0,0,69.66,58.34l-16-16A8,8,0,0,0,42.34,53.66Zm0,116.68-16,16a8,8,0,0,0,11.32,11.32l16-16a8,8,0,0,0-11.32-11.32ZM192,72a8,8,0,0,0,5.66-2.34l16-16a8,8,0,0,0-11.32-11.32l-16,16A8,8,0,0,0,192,72Zm5.66,114.34a8,8,0,0,0-11.32,11.32l16,16a8,8,0,0,0,11.32-11.32ZM48,128a8,8,0,0,0-8-8H16a8,8,0,0,0,0,16H40A8,8,0,0,0,48,128Zm80,80a8,8,0,0,0-8,8v24a8,8,0,0,0,16,0V216A8,8,0,0,0,128,208Zm112-88H216a8,8,0,0,0,0,16h24a8,8,0,0,0,0-16Z"/></symbol>
<symbol id="navigation-arrow" viewBox="0 0 256 256"><path d="M237.33,106.21,61.41,41l-.16-.05A16,16,0,0,0,40.9,61.25a1,1,0,0,0,.05.16l65.26,175.92A15.77,15.77,0,0,0,121.28,248h.3a15.77,15.77,0,0,0,15-11.29l.06-.2,21.84-78,78-21.84.2-.06a16,16,0,0,0,.62-30.38ZM149.84,144.3a8,8,0,0,0-5.54,5.54L121.3,232l-.06-.17L56,56l175.82,65.22.16.06Z"/></symbol>
<symbol id="crosshair-simple" viewBox="0 0 256 256"><path d="M128,24A104,104,0,1,0,232,128,104.11,104.11,0,0,0,128,24Zm8,191.63V184a8,8,0,0,0-16,0v31.63A88.13,88.13,0,0,1,40.37,136H72a8,8,0,0,0,0-16H40.37A88.13,88.13,0,0,1,120,40.37V72a8,8,0,0,0,16,0V40.37A88.13,88.13,0,0,1,215.63,120H184a8,8,0,0,0,0,16h31.63A88.13,88.13,0,0,1,136,215.63Z"/></symbol>
</svg>
